HIERARCHY
ROOT Hips
{
	OFFSET -0.001795 -0.223333 0.028219
	CHANNELS 6 Xposition Yposition Zposition Zrotation Yrotation Xrotation 
	JOINT LeftUpLeg
	{
		OFFSET 0.069520 -0.091406 -0.006815
		CHANNELS 3 Zrotation Yrotation Xrotation
		JOINT LeftLeg
		{
			OFFSET 0.034277 -0.375199 -0.004496
			CHANNELS 3 Zrotation Yrotation Xrotation
			JOINT LeftFoot
			{
				OFFSET -0.013596 -0.397961 -0.043693
				CHANNELS 3 Zrotation Yrotation Xrotation
				JOINT LeftToe
				{
					OFFSET 0.026358 -0.055791 0.119288
					CHANNELS 3 Zrotation Yrotation Xrotation
					End Site
					{
						OFFSET 0.000000 0.000000 0.000000
					}
				}
			}
		}
	}
	JOINT RightUpLeg
	{
		OFFSET -0.067670 -0.090522 -0.004320
		CHANNELS 3 Zrotation Yrotation Xrotation
		JOINT RightLeg
		{
			OFFSET -0.038290 -0.382569 -0.008850
			CHANNELS 3 Zrotation Yrotation Xrotation
			JOINT RightFoot
			{
				OFFSET 0.015774 -0.398415 -0.042312
				CHANNELS 3 Zrotation Yrotation Xrotation
				JOINT RightToe
				{
					OFFSET -0.025372 -0.048144 0.123348
					CHANNELS 3 Zrotation Yrotation Xrotation
					End Site
					{
						OFFSET 0.000000 0.000000 0.000000
					}
				}
			}
		}
	}
	JOINT Spine
	{
		OFFSET -0.002533 0.108963 -0.026696
		CHANNELS 3 Zrotation Yrotation Xrotation
		JOINT Spine1
		{
			OFFSET 0.005487 0.135180 0.001092
			CHANNELS 3 Zrotation Yrotation Xrotation
			JOINT Spine2
			{
				OFFSET 0.001457 0.052922 0.025425
				CHANNELS 3 Zrotation Yrotation Xrotation
				JOINT Neck
				{
					OFFSET -0.002778 0.213870 -0.042857
					CHANNELS 3 Zrotation Yrotation Xrotation
					JOINT Head
					{
						OFFSET 0.005152 0.064970 0.051349
						CHANNELS 3 Zrotation Yrotation Xrotation
						End Site
						{
							OFFSET 0.000000 0.000000 0.000000
						}
					}
				}
				JOINT LeftShoulder
				{
					OFFSET 0.078845 0.121749 -0.034090
					CHANNELS 3 Zrotation Yrotation Xrotation
					JOINT LeftArm
					{
						OFFSET 0.090977 0.030469 -0.008868
						CHANNELS 3 Zrotation Yrotation Xrotation
						JOINT LeftForeArm
						{
							OFFSET 0.259612 -0.012772 -0.027456
							CHANNELS 3 Zrotation Yrotation Xrotation
							JOINT LeftHand
							{
								OFFSET 0.249234 0.008986 -0.001171
								CHANNELS 3 Zrotation Yrotation Xrotation
								End Site
								{
									OFFSET 0.000000 0.000000 0.000000
								}
							}
						}
					}
				}
				JOINT RightShoulder
				{
					OFFSET -0.081759 0.118833 -0.038615
					CHANNELS 3 Zrotation Yrotation Xrotation
					JOINT RightArm
					{
						OFFSET -0.096012 0.032551 -0.009143
						CHANNELS 3 Zrotation Yrotation Xrotation
						JOINT RightForeArm
						{
							OFFSET -0.253742 -0.013329 -0.021401
							CHANNELS 3 Zrotation Yrotation Xrotation
							JOINT RightHand
							{
								OFFSET -0.255298 0.007772 -0.005559
								CHANNELS 3 Zrotation Yrotation Xrotation
								End Site
								{
									OFFSET 0.000000 0.000000 0.000000
								}
							}
						}
					}
				}
			}
		}
	}
}
MOTION
Frames: 16
Frame Time: 0.050000
0.000000 0.941809 0.000000 0.218166 -7.811292 -0.285071 4.974416 0.034210 0.016464 -2.142784 0.247081 2.892253 7.977012 16.787298 15.785913 0.000000 0.000000 0.000000 -5.664956 0.201608 0.901515 2.924196 -0.226214 1.728152 -7.722663 -20.025842 16.520376 0.000000 0.000000 0.000000 8.919463 -0.863345 7.293824 -8.334536 2.421452 -25.887224 -0.201759 10.127429 27.855682 9.570142 -3.004106 -27.352303 0.000000 0.000000 0.000000 -22.531550 -9.848789 3.017265 -52.799037 -2.746435 -7.349717 -5.603053 -28.032905 2.611654 0.000000 0.000000 0.000000 28.959515 -2.501713 -1.562530 58.514499 4.330878 -6.779661 5.556179 29.807860 3.321470 0.000000 0.000000 0.000000 
-0.000351 0.940899 0.001538 0.054721 -8.078761 -0.014443 5.159492 0.067132 0.604160 -2.180214 0.262890 1.653965 8.121546 16.983147 15.605734 0.000000 0.000000 0.000000 -5.373873 0.198932 0.746817 2.695246 -0.202732 1.636562 -7.647547 -19.910646 16.172360 0.000000 0.000000 0.000000 9.497646 -0.813211 6.529338 -8.776412 2.554414 -25.047597 -0.439533 10.496296 27.559007 8.314999 -1.998863 -28.812409 0.000000 0.000000 0.000000 -22.467194 -8.898306 2.391115 -52.999382 -2.970404 -7.233585 -5.392075 -28.213386 2.569071 0.000000 0.000000 0.000000 28.981668 -2.332028 -1.373516 59.744325 4.606162 -6.705444 4.611374 29.873720 3.128089 0.000000 0.000000 0.000000 
-0.000721 0.940938 0.002776 0.428284 -7.108774 -0.134075 5.056999 0.047684 0.449492 -2.525309 0.304645 1.918355 7.586693 16.269551 15.387839 0.000000 0.000000 0.000000 -5.719270 0.193830 0.961192 2.780922 -0.214109 1.845580 -8.169646 -20.643331 16.370473 0.000000 0.000000 0.000000 9.542446 -0.722253 5.695603 -9.435238 2.772810 -24.347752 -0.426142 9.703811 27.675308 7.624360 -1.586431 -29.363936 0.000000 0.000000 0.000000 -22.155991 -9.473920 2.793177 -53.155464 -3.498458 -7.069889 -5.991958 -27.226908 2.620248 0.000000 0.000000 0.000000 29.504954 -1.500638 -0.903099 58.785178 4.879424 -6.534771 4.634331 28.572860 2.908140 0.000000 0.000000 0.000000 
-0.001115 0.940312 0.003839 0.600711 -7.154000 0.001147 4.746714 0.060074 0.716549 -2.292967 0.276191 1.292132 7.626834 16.323541 15.313645 0.000000 0.000000 0.000000 -5.633522 0.196549 0.855320 2.317315 -0.165074 1.862976 -8.225356 -20.720060 16.074029 0.000000 0.000000 0.000000 9.635752 -0.700599 5.452364 -9.643774 2.791267 -25.018646 -0.271721 10.382988 28.673722 7.718011 -1.467506 -30.024676 0.000000 0.000000 0.000000 -22.217326 -9.882988 2.873615 -53.839496 -3.434195 -7.242420 -5.142198 -28.242537 2.510661 0.000000 0.000000 0.000000 29.842915 -1.895514 -0.873477 59.233412 5.559250 -6.419194 4.411826 28.955625 2.991987 0.000000 0.000000 0.000000 
-0.001482 0.940866 0.004519 0.644318 -6.439423 -0.059822 4.561436 0.046373 0.606489 -1.900490 0.216100 1.466200 7.256745 15.834668 15.279214 0.000000 0.000000 0.000000 -5.652856 0.170511 1.208359 2.431032 -0.186617 1.641538 -8.542287 -21.164664 16.501789 0.000000 0.000000 0.000000 9.261747 -0.663451 5.246212 -8.889494 2.679419 -23.686284 -0.859848 10.402928 27.339881 7.532876 -1.318534 -29.458143 0.000000 0.000000 0.000000 -22.180251 -9.602822 2.477597 -54.020418 -3.441360 -7.078833 -6.076963 -28.527871 2.719613 0.000000 0.000000 0.000000 30.044241 -1.712913 -0.602295 59.130674 5.495140 -6.347083 4.298611 28.411747 2.884323 0.000000 0.000000 0.000000 
-0.001603 0.941038 0.004722 0.585541 -6.139642 0.141683 4.592715 0.040538 0.600076 -1.784544 0.204310 1.034751 7.093849 15.619037 15.281097 0.000000 0.000000 0.000000 -5.492983 0.163071 1.123120 2.333628 -0.180895 1.525282 -8.692280 -21.378993 16.707909 0.000000 0.000000 0.000000 9.109791 -0.671233 5.301591 -8.706643 2.608865 -24.265203 -0.697788 10.487474 27.736238 7.614384 -1.318213 -29.539727 0.000000 0.000000 0.000000 -22.011334 -9.669314 2.458114 -54.714841 -3.550605 -7.159883 -6.419149 -28.830655 2.840107 0.000000 0.000000 0.000000 29.905903 -1.627331 -0.409556 59.676664 5.598139 -6.384517 3.729141 28.100071 2.738261 0.000000 0.000000 0.000000 
-0.001355 0.941271 0.004353 0.597585 -6.055372 0.281298 4.480875 0.025183 0.369836 -1.628046 0.182170 1.093396 7.062994 15.580113 15.340054 0.000000 0.000000 0.000000 -5.313633 0.162776 0.935952 1.986540 -0.144199 1.561397 -8.745981 -21.460993 16.836216 0.000000 0.000000 0.000000 9.087972 -0.687296 5.410084 -8.719391 2.614544 -24.204732 -0.703341 10.566186 27.679480 7.724703 -1.322093 -29.803554 0.000000 0.000000 0.000000 -21.767457 -9.422763 2.287707 -55.284122 -3.733565 -7.153008 -7.312279 -29.359815 3.127664 0.000000 0.000000 0.000000 29.974513 -1.668916 -0.387236 59.992798 5.491198 -6.458061 3.958824 28.068501 2.799005 0.000000 0.000000 0.000000 
-0.000768 0.941446 0.003373 0.545109 -6.274959 0.523216 4.314795 0.005245 0.030254 -1.337514 0.142819 1.174804 7.213101 15.781736 15.457491 0.000000 0.000000 0.000000 -5.026264 0.180980 0.382573 1.487159 -0.080506 1.895485 -8.666063 -21.366636 16.857991 0.000000 0.000000 0.000000 8.957733 -0.673382 5.298447 -8.419646 2.535996 -24.126562 -0.690034 10.584288 27.832542 7.479527 -1.169723 -30.113784 0.000000 0.000000 0.000000 -21.806879 -9.384341 2.317484 -55.683465 -3.785766 -7.209955 -8.367109 -30.225604 3.531872 0.000000 0.000000 0.000000 29.808506 -1.446023 -0.276369 60.575952 5.726697 -6.365902 3.698012 28.130545 2.749937 0.000000 0.000000 0.000000 
0.000125 0.941695 0.001802 0.419226 -6.734180 0.731815 4.267421 -0.004417 -0.176642 -1.178328 0.124434 1.099876 7.470136 16.120533 15.654709 0.000000 0.000000 0.000000 -4.900999 0.200551 0.033682 1.343990 -0.066549 1.791562 -8.409968 -21.021306 16.878109 0.000000 0.000000 0.000000 9.068175 -0.703049 5.491302 -8.383304 2.504148 -24.398505 -0.602566 10.629933 28.055851 7.511007 -1.183940 -30.520312 0.000000 0.000000 0.000000 -21.618165 -9.455130 2.469293 -56.360641 -4.007140 -7.250523 -9.174482 -31.043578 3.896887 0.000000 0.000000 0.000000 29.661368 -1.497985 -0.413247 60.948095 5.688176 -6.394505 3.926433 28.277355 2.818463 0.000000 0.000000 0.000000 
0.001034 0.941908 -0.000050 0.396443 -7.374351 0.971368 4.104250 -0.020688 -0.496034 -1.041810 0.107002 1.157901 7.827182 16.585611 15.936362 0.000000 0.000000 0.000000 -4.991616 0.247078 -0.604451 1.360489 -0.057772 2.032678 -8.087151 -20.591740 16.779732 0.000000 0.000000 0.000000 9.171128 -0.708676 5.482199 -8.505241 2.516527 -24.465063 -0.476553 10.383678 28.447431 7.256666 -1.089433 -31.167141 0.000000 0.000000 0.000000 -21.779384 -9.470653 2.711028 -56.811080 -4.284872 -7.262740 -10.211135 -32.121880 4.418884 0.000000 0.000000 0.000000 29.408198 -1.187411 -0.449238 61.374281 5.874823 -6.306784 4.077961 28.632144 2.878021 0.000000 0.000000 0.000000 
0.001843 0.942063 -0.002021 0.319445 -8.180190 0.971894 4.224465 -0.007958 -0.431923 -1.300952 0.147081 1.051455 8.227395 17.100607 16.227399 0.000000 0.000000 0.000000 -5.040953 0.269993 -0.829887 1.394843 -0.060730 1.953456 -7.647405 -19.988380 16.624883 0.000000 0.000000 0.000000 9.369143 -0.753347 5.843202 -8.453270 2.483760 -24.600702 -0.646126 10.257318 28.397609 7.215533 -1.169717 -31.204697 0.000000 0.000000 0.000000 -21.919881 -9.799053 3.103685 -57.029779 -4.543626 -7.193969 -11.106520 -32.942430 4.866102 0.000000 0.000000 0.000000 29.406738 -1.054945 -0.620382 61.383108 5.811802 -6.291331 4.750431 28.969449 3.049435 0.000000 0.000000 0.000000 
0.002387 0.941943 -0.004131 0.193916 -9.022468 0.995160 4.552137 0.001358 -0.495194 -1.799306 0.218675 1.145320 8.658906 17.652200 16.427365 0.000000 0.000000 0.000000 -4.952375 0.292240 -1.153895 1.315049 -0.047474 2.003254 -7.216053 -19.393518 16.372352 0.000000 0.000000 0.000000 9.505137 -0.785504 6.124150 -8.366591 2.442230 -24.754859 -0.829176 9.866344 28.652052 7.163792 -1.232229 -31.830485 0.000000 0.000000 0.000000 -22.393704 -10.003749 3.529481 -56.956267 -4.751265 -7.156286 -11.877589 -33.882600 5.340445 0.000000 0.000000 0.000000 29.548099 -0.679936 -0.753322 61.142729 5.829530 -6.230045 5.250859 29.634071 3.204394 0.000000 0.000000 0.000000 
0.002625 0.941902 -0.006546 0.118879 -9.763568 0.929379 4.660719 0.013038 -0.473179 -1.949623 0.243352 1.190520 9.041917 18.136463 16.665271 0.000000 0.000000 0.000000 -4.931997 0.314330 -1.455840 1.327228 -0.039774 2.178301 -6.841564 -18.870487 16.139097 0.000000 0.000000 0.000000 9.584639 -0.835133 6.593995 -8.162030 2.375139 -24.848821 -1.154631 9.398575 28.642849 7.298365 -1.424639 -32.166038 0.000000 0.000000 0.000000 -23.009527 -10.312290 4.019889 -57.014958 -5.338519 -6.933826 -11.992629 -34.256336 5.522362 0.000000 0.000000 0.000000 29.714793 -0.333395 -0.915247 60.730823 6.095832 -6.007244 5.820522 30.164860 3.356066 0.000000 0.000000 0.000000 
0.002498 0.941984 -0.009342 -0.057080 -10.674519 0.887470 4.904209 0.027970 -0.490183 -2.117139 0.272014 1.309127 9.511909 18.723473 17.009577 0.000000 0.000000 0.000000 -4.754792 0.344512 -1.995877 1.294062 -0.014512 2.680239 -6.390200 -18.243016 15.890651 0.000000 0.000000 0.000000 9.647231 -0.904146 7.256607 -8.050802 2.324660 -24.978036 -1.345205 8.821201 28.623284 7.629320 -1.773132 -32.370339 0.000000 0.000000 0.000000 -23.349697 -10.541430 4.548222 -56.812985 -5.743225 -6.795751 -12.259721 -35.024240 5.838704 0.000000 0.000000 0.000000 29.680899 0.227490 -1.019030 60.636466 5.948670 -5.975741 6.103614 30.991094 3.459779 0.000000 0.000000 0.000000 
0.001840 0.941957 -0.012346 -0.217841 -11.168829 0.933581 5.019575 0.031827 -0.574119 -1.954382 0.251379 1.245027 9.782237 19.053690 17.243359 0.000000 0.000000 0.000000 -4.506944 0.371964 -2.565750 1.242581 0.012422 3.183849 -6.167965 -17.937246 15.720136 0.000000 0.000000 0.000000 9.654770 -0.946841 7.667331 -7.808796 2.249911 -25.104534 -1.641323 8.361656 28.557404 8.019465 -2.101862 -32.454812 0.000000 0.000000 0.000000 -23.960133 -10.677994 4.908042 -56.334468 -5.663381 -6.833656 -12.075126 -35.898459 5.996163 0.000000 0.000000 0.000000 29.761137 0.297568 -1.311604 60.217866 5.675273 -6.016459 6.914604 31.864171 3.735064 0.000000 0.000000 0.000000 
0.000596 0.941804 -0.015053 -0.471046 -11.920881 1.077978 5.432293 0.036979 -0.858261 -2.112984 0.277946 1.516748 10.194324 19.556698 17.517783 0.000000 0.000000 0.000000 -4.356461 0.410196 -3.174129 1.575058 -0.004448 3.576142 -5.816986 -17.435931 15.457824 0.000000 0.000000 0.000000 9.732764 -0.996546 8.110967 -7.802468 2.226446 -25.274200 -1.804677 7.913061 28.545246 8.917626 -2.769665 -32.240059 0.000000 0.000000 0.000000 -24.187433 -10.549996 5.165867 -55.935937 -5.894555 -6.763527 -12.003514 -36.423432 6.145294 0.000000 0.000000 0.000000 29.803908 0.468435 -1.596671 59.861648 5.255537 -6.116149 7.555664 32.607689 3.940094 0.000000 0.000000 0.000000 
